M48
; DRILL file {KiCad (5.1.6)-1} date 07/10/20 21:30:05
; FORMAT={-:-/ absolute / inch / decimal}
; #@! TF.CreationDate,2020-07-10T21:30:05-04:00
; #@! TF.GenerationSoftware,Kicad,Pcbnew,(5.1.6)-1
FMAT,2
INCH
T1C0.0118
T2C0.0157
T3C0.0315
T4C0.0390
T5C0.0394
T6C0.0415
T7C0.0520
%
G90
G05
T1
X8.5728Y-1.1713
X8.7559Y-2.248
X8.8665Y-2.2039
X8.9764Y-1.0236
X9.1485Y-1.7342
X9.1531Y-1.9316
X9.1638Y-1.8311
X9.1673Y-1.7849
X9.1704Y-1.7103
X9.1969Y-2.2382
X9.2028Y-1.7028
X9.247Y-1.6191
X9.2815Y-2.1161
X9.2872Y-1.6433
X9.3307Y-1.7323
X9.3602Y-1.7283
X9.4839Y-1.7287
X9.5028Y-1.6059
X9.541Y-1.7269
X9.5862Y-1.698
X9.5866Y-2.0965
X9.5925Y-1.9291
X9.6272Y-1.7236
X9.6358Y-1.8701
X9.6732Y-2.1811
X9.6807Y-1.6287
X9.8819Y-1.5315
X9.9949Y-1.928
X10.0197Y-1.1496
X10.0472Y-1.1496
X10.0827Y-1.5591
X10.0906Y-1.1496
X10.1181Y-1.1496
X10.2934Y-1.6889
X10.3071Y-1.7283
X10.4366Y-1.2
X10.4528Y-1.7677
X10.4606Y-1.061
X10.4843Y-1.0847
T2
X9.2323Y-1.122
X9.2815Y-1.7717
X9.2815Y-1.811
X9.2815Y-1.8504
X9.2815Y-1.8898
X9.2815Y-1.9291
X9.2815Y-1.9685
X9.2815Y-2.0079
X9.3209Y-1.7717
X9.3209Y-1.811
X9.3209Y-1.8504
X9.3209Y-1.8898
X9.3209Y-1.9291
X9.3209Y-1.9685
X9.3209Y-2.0079
X9.3602Y-1.7717
X9.3602Y-1.811
X9.3602Y-1.8504
X9.3602Y-1.8898
X9.3602Y-1.9291
X9.3602Y-1.9685
X9.3602Y-2.0079
X9.3996Y-1.7717
X9.3996Y-1.811
X9.3996Y-1.8504
X9.3996Y-1.8898
X9.3996Y-1.9291
X9.3996Y-1.9685
X9.3996Y-2.0079
X9.439Y-1.7717
X9.439Y-1.811
X9.439Y-1.8504
X9.439Y-1.8898
X9.439Y-1.9291
X9.439Y-1.9685
X9.439Y-2.0079
X9.4783Y-1.7717
X9.4783Y-1.811
X9.4783Y-1.8504
X9.4783Y-1.8898
X9.4783Y-1.9291
X9.4783Y-1.9685
X9.4783Y-2.0079
X9.5177Y-1.7717
X9.5177Y-1.811
X9.5177Y-1.8504
X9.5177Y-1.8898
X9.5177Y-1.9291
X9.5177Y-1.9685
X9.5177Y-2.0079
T3
X9.4291Y-1.4665
X9.6213Y-1.4665
T4
X10.5413Y-2.1161
X10.5413Y-2.372
X10.7185Y-2.1161
X10.7185Y-2.3661
T5
X10.7185Y-2.4803
X8.5925Y-1.9685
X8.5925Y-2.0685
X8.5925Y-2.1685
X8.6925Y-1.9685
X8.6925Y-2.0685
X8.6925Y-2.1685
X9.9705Y-0.8843
X9.9705Y-0.9843
X10.0705Y-0.8843
X10.0705Y-0.9843
X10.1705Y-0.8843
X10.1705Y-0.9843
X10.2705Y-0.8843
X10.2705Y-0.9843
X9.4783Y-0.8843
X9.4783Y-0.9843
X9.5783Y-0.8843
X9.5783Y-0.9843
X9.6783Y-0.8843
X9.6783Y-0.9843
X9.7783Y-0.8843
X9.7783Y-0.9843
X9.7378Y-1.7913
X9.8378Y-1.7913
X9.9378Y-1.7913
X10.0378Y-1.7913
X10.1378Y-1.7913
X10.2378Y-1.7913
X10.3378Y-1.7913
X9.0634Y-1.2598
X9.1634Y-1.2598
X9.2634Y-1.2598
X9.3634Y-1.2598
X8.5925Y-2.313
X8.6925Y-2.313
X8.7925Y-2.313
X8.4173Y-1.25
X8.5173Y-1.25
X8.6173Y-1.25
X8.7173Y-1.25
X8.8173Y-1.25
X8.9173Y-1.25
X9.1035Y-2.3606
X9.1035Y-2.4606
X9.2035Y-2.3606
X9.2035Y-2.4606
X9.3035Y-2.3606
X9.3035Y-2.4606
X9.4035Y-2.3606
X9.4035Y-2.4606
X9.5035Y-2.3606
X9.5035Y-2.4606
X9.6035Y-2.3606
X9.6035Y-2.4606
X9.7035Y-2.3606
X9.7035Y-2.4606
X9.8035Y-2.3606
X9.8035Y-2.4606
X9.9035Y-2.3606
X9.9035Y-2.4606
X10.0035Y-2.3606
X10.0035Y-2.4606
X10.1035Y-2.3606
X10.1035Y-2.4606
X10.2035Y-2.3606
X10.2035Y-2.4606
X10.3035Y-2.3606
X10.3035Y-2.4606
X10.4035Y-2.3606
X10.4035Y-2.4606
X8.5878Y-1.7913
X8.6878Y-1.7913
X8.7878Y-1.7913
X8.8878Y-1.7913
X8.9878Y-1.7913
X9.0878Y-1.7913
X10.7185Y-1.4488
X10.7185Y-1.5488
X10.7185Y-1.6488
X10.7185Y-1.7488
X10.7185Y-1.8488
X10.7185Y-1.9488
X8.7795Y-1.6732
X8.8795Y-1.6732
X8.9795Y-1.6732
X9.0795Y-1.6732
T6
X10.6024Y-0.9449
X10.6024Y-1.1417
T7
X10.7087Y-0.9055
X10.7087Y-1.1811
T0
M30
