G04 #@! TF.GenerationSoftware,KiCad,Pcbnew,(5.1.6)-1*
G04 #@! TF.CreationDate,2020-07-10T21:29:36-04:00*
G04 #@! TF.ProjectId,f1c200s,66316332-3030-4732-9e6b-696361645f70,rev?*
G04 #@! TF.SameCoordinates,Original*
G04 #@! TF.FileFunction,Legend,Top*
G04 #@! TF.FilePolarity,Positive*
%FSLAX46Y46*%
G04 Gerber Fmt 4.6, Leading zero omitted, Abs format (unit mm)*
G04 Created by KiCad (PCBNEW (5.1.6)-1) date 2020-07-10 21:29:36*
%MOMM*%
%LPD*%
G01*
G04 APERTURE LIST*
%ADD10C,0.120000*%
%ADD11C,0.150000*%
%ADD12C,0.200000*%
%ADD13C,0.152400*%
%ADD14C,0.100000*%
G04 APERTURE END LIST*
D10*
X233600000Y-43400000D02*
X233600000Y-42850000D01*
X233600000Y-42850000D02*
X234150000Y-42850000D01*
X243900000Y-43400000D02*
X243900000Y-42850000D01*
X243900000Y-42850000D02*
X243350000Y-42850000D01*
X243900000Y-52600000D02*
X243900000Y-53150000D01*
X243900000Y-53150000D02*
X243350000Y-53150000D01*
X233600000Y-52600000D02*
X233600000Y-53150000D01*
D11*
X235050000Y-52000000D02*
G75*
G03*
X235050000Y-52000000I-300000J0D01*
G01*
D10*
X234150000Y-53150000D02*
X233600000Y-53150000D01*
X238740000Y-39775000D02*
X245140000Y-39775000D01*
X238740000Y-34725000D02*
X245140000Y-34725000D01*
X245140000Y-39775000D02*
G75*
G03*
X245140000Y-34725000I0J2525000D01*
G01*
X238740000Y-39775000D02*
G75*
G02*
X238740000Y-34725000I0J2525000D01*
G01*
X233000000Y-20870000D02*
X229550000Y-20870000D01*
X233000000Y-20870000D02*
X234950000Y-20870000D01*
X233000000Y-25990000D02*
X231050000Y-25990000D01*
X233000000Y-25990000D02*
X234950000Y-25990000D01*
D12*
X256150000Y-27750000D02*
X256150000Y-27750000D01*
X256350000Y-27750000D02*
X256350000Y-27750000D01*
X256350000Y-27750000D02*
G75*
G03*
X256150000Y-27750000I-100000J0D01*
G01*
X256150000Y-27750000D02*
G75*
G03*
X256350000Y-27750000I100000J0D01*
G01*
D10*
X247920000Y-29760000D02*
X247920000Y-28300000D01*
X251080000Y-29760000D02*
X251080000Y-27600000D01*
X251080000Y-29760000D02*
X250150000Y-29760000D01*
X247920000Y-29760000D02*
X248850000Y-29760000D01*
D13*
X268832039Y-60124201D02*
X271175298Y-60124201D01*
X266875799Y-54387641D02*
X266875799Y-59192293D01*
X271175298Y-53875801D02*
X268824701Y-53875801D01*
X273124199Y-59612361D02*
X273124199Y-54387641D01*
D10*
X269703733Y-32260000D02*
X270046267Y-32260000D01*
X269703733Y-31240000D02*
X270046267Y-31240000D01*
X270046267Y-32990000D02*
X269703733Y-32990000D01*
X270046267Y-34010000D02*
X269703733Y-34010000D01*
X230828733Y-30510000D02*
X231171267Y-30510000D01*
X230828733Y-29490000D02*
X231171267Y-29490000D01*
X256856267Y-34990000D02*
X256513733Y-34990000D01*
X256856267Y-36010000D02*
X256513733Y-36010000D01*
X268953733Y-63510000D02*
X269296267Y-63510000D01*
X268953733Y-62490000D02*
X269296267Y-62490000D01*
X249633733Y-34920000D02*
X249976267Y-34920000D01*
X249633733Y-33900000D02*
X249976267Y-33900000D01*
X246510000Y-49171267D02*
X246510000Y-48828733D01*
X245490000Y-49171267D02*
X245490000Y-48828733D01*
X247490000Y-48703733D02*
X247490000Y-49046267D01*
X248510000Y-48703733D02*
X248510000Y-49046267D01*
X231171267Y-54240000D02*
X230828733Y-54240000D01*
X231171267Y-55260000D02*
X230828733Y-55260000D01*
X231171267Y-52490000D02*
X230828733Y-52490000D01*
X231171267Y-53510000D02*
X230828733Y-53510000D01*
X231171267Y-55990000D02*
X230828733Y-55990000D01*
X231171267Y-57010000D02*
X230828733Y-57010000D01*
X266450000Y-31500000D02*
X265050000Y-31500000D01*
X264350000Y-30800000D02*
X264350000Y-30200000D01*
X265050000Y-29500000D02*
X266450000Y-29500000D01*
X267150000Y-30200000D02*
X267150000Y-30800000D01*
X267150000Y-30800000D02*
G75*
G02*
X266450000Y-31500000I-700000J0D01*
G01*
X266450000Y-29500000D02*
G75*
G02*
X267150000Y-30200000I0J-700000D01*
G01*
X264350000Y-30200000D02*
G75*
G02*
X265050000Y-29500000I700000J0D01*
G01*
X265050000Y-31500000D02*
G75*
G02*
X264350000Y-30800000I0J700000D01*
G01*
X269200000Y-45500000D02*
X267800000Y-45500000D01*
X267100000Y-44800000D02*
X267100000Y-44200000D01*
X267800000Y-43500000D02*
X269200000Y-43500000D01*
X269900000Y-44200000D02*
X269900000Y-44800000D01*
X269900000Y-44800000D02*
G75*
G02*
X269200000Y-45500000I-700000J0D01*
G01*
X269200000Y-43500000D02*
G75*
G02*
X269900000Y-44200000I0J-700000D01*
G01*
X267100000Y-44200000D02*
G75*
G02*
X267800000Y-43500000I700000J0D01*
G01*
X267800000Y-45500000D02*
G75*
G02*
X267100000Y-44800000I0J700000D01*
G01*
X230500000Y-27150000D02*
X230500000Y-28550000D01*
X229800000Y-29250000D02*
X229200000Y-29250000D01*
X228500000Y-28550000D02*
X228500000Y-27150000D01*
X229200000Y-26450000D02*
X229800000Y-26450000D01*
X229800000Y-26450000D02*
G75*
G02*
X230500000Y-27150000I0J-700000D01*
G01*
X228500000Y-27150000D02*
G75*
G02*
X229200000Y-26450000I700000J0D01*
G01*
X229200000Y-29250000D02*
G75*
G02*
X228500000Y-28550000I0J700000D01*
G01*
X230500000Y-28550000D02*
G75*
G02*
X229800000Y-29250000I-700000J0D01*
G01*
X235500000Y-27150000D02*
X235500000Y-28550000D01*
X234800000Y-29250000D02*
X234200000Y-29250000D01*
X233500000Y-28550000D02*
X233500000Y-27150000D01*
X234200000Y-26450000D02*
X234800000Y-26450000D01*
X234800000Y-26450000D02*
G75*
G02*
X235500000Y-27150000I0J-700000D01*
G01*
X233500000Y-27150000D02*
G75*
G02*
X234200000Y-26450000I700000J0D01*
G01*
X234200000Y-29250000D02*
G75*
G02*
X233500000Y-28550000I0J700000D01*
G01*
X235500000Y-28550000D02*
G75*
G02*
X234800000Y-29250000I-700000J0D01*
G01*
X238000000Y-27150000D02*
X238000000Y-28550000D01*
X237300000Y-29250000D02*
X236700000Y-29250000D01*
X236000000Y-28550000D02*
X236000000Y-27150000D01*
X236700000Y-26450000D02*
X237300000Y-26450000D01*
X237300000Y-26450000D02*
G75*
G02*
X238000000Y-27150000I0J-700000D01*
G01*
X236000000Y-27150000D02*
G75*
G02*
X236700000Y-26450000I700000J0D01*
G01*
X236700000Y-29250000D02*
G75*
G02*
X236000000Y-28550000I0J700000D01*
G01*
X238000000Y-28550000D02*
G75*
G02*
X237300000Y-29250000I-700000J0D01*
G01*
X231000000Y-28550000D02*
X231000000Y-27150000D01*
X231700000Y-26450000D02*
X232300000Y-26450000D01*
X233000000Y-27150000D02*
X233000000Y-28550000D01*
X232300000Y-29250000D02*
X231700000Y-29250000D01*
X231700000Y-29250000D02*
G75*
G02*
X231000000Y-28550000I0J700000D01*
G01*
X233000000Y-28550000D02*
G75*
G02*
X232300000Y-29250000I-700000J0D01*
G01*
X232300000Y-26450000D02*
G75*
G02*
X233000000Y-27150000I0J-700000D01*
G01*
X231000000Y-27150000D02*
G75*
G02*
X231700000Y-26450000I700000J0D01*
G01*
X270920000Y-35470000D02*
X272250000Y-35470000D01*
X270920000Y-36800000D02*
X270920000Y-35470000D01*
X270920000Y-38070000D02*
X273580000Y-38070000D01*
X273580000Y-38070000D02*
X273580000Y-50830000D01*
X270920000Y-38070000D02*
X270920000Y-50830000D01*
X270920000Y-50830000D02*
X273580000Y-50830000D01*
X227830000Y-30420000D02*
X227830000Y-31750000D01*
X226500000Y-30420000D02*
X227830000Y-30420000D01*
X225230000Y-30420000D02*
X225230000Y-33080000D01*
X225230000Y-33080000D02*
X212470000Y-33080000D01*
X225230000Y-30420000D02*
X212470000Y-30420000D01*
X212470000Y-30420000D02*
X212470000Y-33080000D01*
D12*
X268200000Y-27700000D02*
X268200000Y-27700000D01*
X268200000Y-27900000D02*
X268200000Y-27900000D01*
D14*
X270500000Y-23050000D02*
X269300000Y-23050000D01*
X270500000Y-29950000D02*
X269300000Y-29950000D01*
X274150000Y-23050000D02*
X273500000Y-23050000D01*
X274150000Y-29950000D02*
X274150000Y-23050000D01*
X273500000Y-29950000D02*
X274150000Y-29950000D01*
D12*
X268200000Y-27900000D02*
G75*
G03*
X268200000Y-27700000I0J100000D01*
G01*
X268200000Y-27700000D02*
G75*
G03*
X268200000Y-27900000I0J-100000D01*
G01*
X223640570Y-28900000D02*
G75*
G03*
X223640570Y-28900000I-56570J0D01*
G01*
X214350000Y-27200000D02*
X214350000Y-26778000D01*
X225650000Y-27200000D02*
X225650000Y-26105000D01*
X214350000Y-27200000D02*
X225650000Y-27200000D01*
D10*
X239420000Y-26330000D02*
X239420000Y-25000000D01*
X240750000Y-26330000D02*
X239420000Y-26330000D01*
X239420000Y-23730000D02*
X239420000Y-21130000D01*
X242020000Y-23730000D02*
X239420000Y-23730000D01*
X242020000Y-26330000D02*
X242020000Y-23730000D01*
X239420000Y-21130000D02*
X249700000Y-21130000D01*
X242020000Y-26330000D02*
X249700000Y-26330000D01*
X249700000Y-26330000D02*
X249700000Y-21130000D01*
X270920000Y-61670000D02*
X272250000Y-61670000D01*
X270920000Y-63000000D02*
X270920000Y-61670000D01*
X270920000Y-64270000D02*
X273580000Y-64270000D01*
X273580000Y-64270000D02*
X273580000Y-64330000D01*
X270920000Y-64270000D02*
X270920000Y-64330000D01*
X270920000Y-64330000D02*
X273580000Y-64330000D01*
X232160000Y-44170000D02*
X232160000Y-45500000D01*
X230830000Y-44170000D02*
X232160000Y-44170000D01*
X229560000Y-44170000D02*
X229560000Y-46830000D01*
X229560000Y-46830000D02*
X216800000Y-46830000D01*
X229560000Y-44170000D02*
X216800000Y-44170000D01*
X216800000Y-44170000D02*
X216800000Y-46830000D01*
X251920000Y-26330000D02*
X251920000Y-25000000D01*
X253250000Y-26330000D02*
X251920000Y-26330000D01*
X251920000Y-23730000D02*
X251920000Y-21130000D01*
X254520000Y-23730000D02*
X251920000Y-23730000D01*
X254520000Y-26330000D02*
X254520000Y-23730000D01*
X251920000Y-21130000D02*
X262200000Y-21130000D01*
X254520000Y-26330000D02*
X262200000Y-26330000D01*
X262200000Y-26330000D02*
X262200000Y-21130000D01*
X239160000Y-30670000D02*
X239160000Y-32000000D01*
X237830000Y-30670000D02*
X239160000Y-30670000D01*
X236560000Y-30670000D02*
X236560000Y-33330000D01*
X236560000Y-33330000D02*
X228880000Y-33330000D01*
X236560000Y-30670000D02*
X228880000Y-30670000D01*
X228880000Y-30670000D02*
X228880000Y-33330000D01*
X216920000Y-60080000D02*
X216920000Y-58750000D01*
X218250000Y-60080000D02*
X216920000Y-60080000D01*
X219520000Y-60080000D02*
X219520000Y-57420000D01*
X219520000Y-57420000D02*
X224660000Y-57420000D01*
X219520000Y-60080000D02*
X224660000Y-60080000D01*
X224660000Y-60080000D02*
X224660000Y-57420000D01*
X216920000Y-48670000D02*
X218250000Y-48670000D01*
X216920000Y-50000000D02*
X216920000Y-48670000D01*
X219520000Y-48670000D02*
X222120000Y-48670000D01*
X219520000Y-51270000D02*
X219520000Y-48670000D01*
X216920000Y-51270000D02*
X219520000Y-51270000D01*
X222120000Y-48670000D02*
X222120000Y-56410000D01*
X216920000Y-51270000D02*
X216920000Y-56410000D01*
X216920000Y-56410000D02*
X222120000Y-56410000D01*
X246010000Y-46830000D02*
X246010000Y-45500000D01*
X247340000Y-46830000D02*
X246010000Y-46830000D01*
X248610000Y-46830000D02*
X248610000Y-44170000D01*
X248610000Y-44170000D02*
X263910000Y-44170000D01*
X248610000Y-46830000D02*
X263910000Y-46830000D01*
X263910000Y-46830000D02*
X263910000Y-44170000D01*
X221670000Y-43830000D02*
X221670000Y-42500000D01*
X223000000Y-43830000D02*
X221670000Y-43830000D01*
X224270000Y-43830000D02*
X224270000Y-41170000D01*
X224270000Y-41170000D02*
X231950000Y-41170000D01*
X224270000Y-43830000D02*
X231950000Y-43830000D01*
X231950000Y-43830000D02*
X231950000Y-41170000D01*
X229900000Y-63830000D02*
X229900000Y-62500000D01*
X231230000Y-63830000D02*
X229900000Y-63830000D01*
X229900000Y-61230000D02*
X229900000Y-58630000D01*
X232500000Y-61230000D02*
X229900000Y-61230000D01*
X232500000Y-63830000D02*
X232500000Y-61230000D01*
X229900000Y-58630000D02*
X265580000Y-58630000D01*
X232500000Y-63830000D02*
X265580000Y-63830000D01*
X265580000Y-63830000D02*
X265580000Y-58630000D01*
X251885000Y-36245000D02*
X254345000Y-36245000D01*
X251885000Y-34775000D02*
X251885000Y-36245000D01*
X254345000Y-34775000D02*
X251885000Y-34775000D01*
X255215000Y-36585000D02*
X252755000Y-36585000D01*
X255215000Y-38055000D02*
X255215000Y-36585000D01*
X252755000Y-38055000D02*
X255215000Y-38055000D01*
X252760000Y-29171267D02*
X252760000Y-28828733D01*
X251740000Y-29171267D02*
X251740000Y-28828733D01*
X257676267Y-48350000D02*
X257333733Y-48350000D01*
X257676267Y-49370000D02*
X257333733Y-49370000D01*
X266153733Y-47560000D02*
X266496267Y-47560000D01*
X266153733Y-46540000D02*
X266496267Y-46540000D01*
X243453733Y-41260000D02*
X243796267Y-41260000D01*
X243453733Y-40240000D02*
X243796267Y-40240000D01*
X240546267Y-40240000D02*
X240203733Y-40240000D01*
X240546267Y-41260000D02*
X240203733Y-41260000D01*
X248053733Y-40810000D02*
X248396267Y-40810000D01*
X248053733Y-39790000D02*
X248396267Y-39790000D01*
X246240000Y-28828733D02*
X246240000Y-29171267D01*
X247260000Y-28828733D02*
X247260000Y-29171267D01*
X259703733Y-28510000D02*
X260046267Y-28510000D01*
X259703733Y-27490000D02*
X260046267Y-27490000D01*
X244436989Y-54958238D02*
X244679198Y-55200447D01*
X245158238Y-54236989D02*
X245400447Y-54479198D01*
X253796267Y-31740000D02*
X253453733Y-31740000D01*
X253796267Y-32760000D02*
X253453733Y-32760000D01*
X252290000Y-49731267D02*
X252290000Y-49388733D01*
X251270000Y-49731267D02*
X251270000Y-49388733D01*
X256953733Y-32760000D02*
X257296267Y-32760000D01*
X256953733Y-31740000D02*
X257296267Y-31740000D01*
X271060000Y-58871267D02*
X271060000Y-58528733D01*
X270040000Y-58871267D02*
X270040000Y-58528733D01*
X233760480Y-55618271D02*
X233518271Y-55860480D01*
X234481729Y-56339520D02*
X234239520Y-56581729D01*
X227796267Y-54240000D02*
X227453733Y-54240000D01*
X227796267Y-55260000D02*
X227453733Y-55260000D01*
X227796267Y-52490000D02*
X227453733Y-52490000D01*
X227796267Y-53510000D02*
X227453733Y-53510000D01*
X227796267Y-55990000D02*
X227453733Y-55990000D01*
X227796267Y-57010000D02*
X227453733Y-57010000D01*
D11*
X265691079Y-60250001D02*
X265929175Y-60250001D01*
X265833937Y-60488096D02*
X265929175Y-60250001D01*
X265833937Y-60011905D01*
X266119651Y-60392858D02*
X265929175Y-60250001D01*
X266119651Y-60107143D01*
X265691079Y-60250001D02*
X265929175Y-60250001D01*
X265833937Y-60488096D02*
X265929175Y-60250001D01*
X265833937Y-60011905D01*
X266119651Y-60392858D02*
X265929175Y-60250001D01*
X266119651Y-60107143D01*
M02*
